<svg width="20" height="20" viewBox="0 0 20 20" fill="none" xmlns="http://www.w3.org/2000/svg">
<path d="M18.5576 0C19.3543 1.61919e-05 20 0.645745 20 1.44238V18.5576C20 19.3543 19.3543 20 18.5576 20H1.44238C0.645745 20 1.61918e-05 19.3543 0 18.5576V1.44238C1.65139e-05 0.645746 0.645746 1.65139e-05 1.44238 0H18.5576ZM4.6582 7.79004V15.1172H7.09375V7.79004H4.6582ZM13.0723 7.61816C11.7803 7.61816 11.2006 8.32789 10.877 8.82715V7.79004H8.44238C8.47426 8.4772 8.44241 15.1123 8.44238 15.1172H10.877V11.0254C10.877 10.8064 10.8926 10.5872 10.957 10.4307C11.1332 9.99327 11.5344 9.54004 12.207 9.54004C13.0881 9.54012 13.4404 10.2123 13.4404 11.1973V15.1172H15.876V10.916C15.876 8.6656 14.6745 7.61826 13.0723 7.61816ZM5.89258 4.25781C5.05964 4.25784 4.51485 4.80466 4.51465 5.52344C4.51465 6.22649 5.04323 6.78993 5.86035 6.79004H5.87695C6.72597 6.78982 7.25391 6.22643 7.25391 5.52344C7.23785 4.80464 6.72555 4.25781 5.89258 4.25781Z" fill="#191717"/>
</svg>
